<!--?xml version="1.0" standalone="no"?-->
              <svg id="sw-js-blob-svg" viewBox="0 0 100 100" xmlns="http://www.w3.org/2000/svg" version="1.1">
                    <defs> 
                        <linearGradient id="sw-gradient" x1="0" x2="1" y1="1" y2="0">
                            <stop id="stop1" stop-color="rgba(248, 117, 55, 1)" offset="0%"></stop>
                            <stop id="stop2" stop-color="rgba(251, 168, 31, 1)" offset="100%"></stop>
                        </linearGradient>
                    </defs>
                <path fill="url(#sw-gradient)" d="M18.9,-32.4C25.2,-29,31.6,-25.5,34.8,-20C37.9,-14.6,37.9,-7.3,38.4,0.3C38.9,7.9,39.9,15.8,36.8,21.4C33.8,26.9,26.6,30.2,19.7,33.8C12.9,37.3,6.4,41.2,0,41.1C-6.4,41,-12.7,37,-19.9,33.7C-27.1,30.4,-35.2,27.6,-39,22.1C-42.9,16.6,-42.6,8.3,-42,0.4C-41.3,-7.6,-40.3,-15.1,-36.8,-21.3C-33.4,-27.5,-27.4,-32.3,-20.9,-35.6C-14.3,-38.9,-7.1,-40.7,-0.4,-39.9C6.3,-39.1,12.5,-35.8,18.9,-32.4Z" width="100%" height="100%" transform="translate(50 50)" stroke-width="0" style="transition: 0.3s;"></path>
              </svg>